<?xml version="1.0" standalone="no"?>
<!DOCTYPE svg PUBLIC "-//W3C//DTD SVG 1.1//EN" "http://www.w3.org/Graphics/SVG/1.1/DTD/svg11.dtd" >
<svg xmlns="http://www.w3.org/2000/svg">
<metadata></metadata>
<defs>
<font id="gd-fontregular" horiz-adv-x="1024" >
<font-face units-per-em="1024" ascent="960" descent="-64" />
<missing-glyph horiz-adv-x="512" />
<glyph horiz-adv-x="0" />
<glyph horiz-adv-x="0" />
<glyph horiz-adv-x="0" />
<glyph unicode=" "  horiz-adv-x="512" />
<glyph unicode="&#x09;" horiz-adv-x="512" />
<glyph unicode="&#xa0;" horiz-adv-x="512" />
<glyph unicode="1" d="M-1 107l1 682q-1 68 50 121q48 50 120 50h683q73 0 121 -50q50 -52 49 -121l1 -682q-2 -73 -50 -121q-52 -50 -122 -50h-681q-71 0 -121 50q-49 48 -51 121zM215 564q-5 -68 20 -114q26 -48 86 -62q15 26 15 41q-1 27 -22 56q-10 13 -11 30q-12 69 21.5 127.5t94.5 91.5 q55 32 123.5 26t115.5 -55q35 -34 43 -98.5t-10 -123.5q-18 -64 -57.5 -102t-91.5 -27q-21 4 -33 15t-16 22.5t-1.5 32.5t6 34.5t11.5 40.5q24 79 24 102q0 42 -36 56q-32 12 -58.5 -3.5t-40.5 -48.5t-14 -68.5t17 -65.5q-12 -51 -24 -94q-13 -47 -24 -96q-24 -107 -12 -215 q47 34 79 110q16 36 39 149q3 -2 11.5 -8t13.5 -9q10 -7 22 -14q28 -17 55 -18q120 -10 196 102q64 97 49 240q-18 110 -114 168q-93 55 -219 41q-103 -11 -174 -81q-83 -79 -84 -182z" />
<glyph unicode="2" d="M0 188q0 77 76 134q79 59 187 59h12h12q8 0 12 1h11q-13 11 -26 33q-11 19 -11 41q0 14 4 26q6 16 10 24q-2 -1 -6 -1h-6h-6h-7q-91 0 -148 57q-56 54 -56 138q0 78 72 137q70 59 161 59h70h89h77h32l-60 -43h-85q43 -17 65 -60q22 -44 22 -95q0 -39 -22 -78 q-18 -33 -54 -62q-31 -25 -42 -40q-10 -15 -10 -37q0 -15 27 -44q24 -26 44 -39q50 -35 73 -76q21 -39 21 -98q0 -77 -68 -133q-75 -60 -196 -60q-115 0 -192 43q-82 44 -82 114zM97 217q0 -60 50 -101q50 -42 127 -42q101 0 151 40q44 35 44 99v7q-1 2 -1 7q0 4 -1 7 q-1 1 -1.5 3.5t-0.5 3.5q-4 16 -13 29q-19 25 -55 49l-39 27q-16 5 -31 8q-12 2 -35 2q-76 1 -136 -40q-59 -41 -59 -99zM154 700q11 -70 52 -117q43 -50 95 -51q51 -1 82 46q32 47 21 115q-7 66 -52 116q-43 48 -94 49t-82 -44q-30 -44 -22 -114zM576 640v64h192v192h64 v-192h192v-64h-192v-192h-64v192h-192z" />
<glyph unicode="3" d="M256 448h128v-512h192v512h140l19 177h-159v88q0 39 10 52q14 19 59 19h89v176h-142q-119 0 -167 -62q-41 -51 -41 -170v-103l-128 -1v-176z" />
<glyph unicode="4" d="M0 127q4 -1 13 -1q4 -1 12 -1q4 -1 13 -1q8 0 12 -1q77 2 141 25q71 26 120 66q-65 0 -122 42q-53 39 -74 103q7 0 10 -1t9 -1q7 0 10 -1q5 -2 10 0q8 -2 15 0l14 2q3 0 13 2l14 3q-75 17 -120 73q-49 59 -49 134v1l22 -9q10 -6 23 -9q28 -7 50 -7q-39 24 -67 74 q-26 44 -26 100q0 26 8 56q3 15 20 51q75 -93 190 -155q109 -58 243 -66q0 2 -0.5 6.5t-1.5 6.5q-1 3 -1 12q-1 4 -1 12q-1 3 -1 12q0 88 62 148q64 62 148 61q42 1 85 -17q35 -15 68 -48q16 1 36 8q44 13 66 26q5 3 16 8.5t16 7.5q-13 -38 -36 -66q-28 -35 -57 -49 q17 0 32 4q6 2 16.5 4.5t14.5 3.5q18 4 57 20q-22 -34 -46 -59q-20 -21 -58 -50q0 -4 1 -6v-7v-7v-6q0 -107 -39.5 -212.5t-114.5 -190.5q-79 -91 -191.5 -143t-252.5 -53q-92 2 -170 26q-86 25 -152 69zM1023 766z" />
<glyph unicode="5" d="M0 652l30 33q77 85 173 153q57 40 105 48t80 -24q50 -59 71 -212q11 -77 45 -202q21 -77 40 -105q9 -14 20 -14q20 0 60 51q44 59 83 134q21 41 23 79t-16 60q-42 53 -127 1q17 100 92 165t163 75q89 9 143 -45.5t34 -168.5q-38 -210 -222 -426q-67 -78 -136.5 -140 t-114.5 -91q-65 -43 -132 -3q-54 33 -84 94q-15 30 -89 274l-50 159q-24 69 -35 84q-10 13 -30 9q-34 -7 -70 -33l-14 -10z" />
<glyph unicode="6" d="M0 448q0 104 39.5 198t110.5 165q70 70 164 109.5t198 39.5t198 -39.5t165 -109.5q70 -71 109.5 -165t39.5 -198t-39.5 -198t-109.5 -164q-71 -71 -165 -110.5t-198 -39.5t-198 39.5t-164 110.5q-71 70 -110.5 164t-39.5 198zM222 354q0 -55 38 -91q37 -39 92 -39 q53 0 92 39q37 37 37 91v188q0 11 9 22q8 9 22 9t22 -9q9 -11 9 -22v-38l41 -18l58 18v38q0 52 -38 92q-40 38 -92 38q-53 0 -91 -38q-39 -39 -39 -92v-184q0 -13 -9 -22t-21 -9q-13 0 -22 9t-9 22v81h-99v-85zM543 354q0 -55 38 -91q37 -39 91 -39t93 39q37 37 37 91v82 h-99v-82q0 -10 -9 -21q-8 -10 -22 -10q-13 0 -21 10q-9 11 -9 21v84l-58 -19l-41 19v-84z" />
<glyph unicode="A" d="M156 380q-2 19 -2 39q0 53 17 111q7 -23 24 -58q33 -77 64 -118q15 -22 23 -17q4 2 4 22q0 12 -1 30q-4 47 -9 113q-3 48 -3 88q0 110 24 162q23 47 86 100q58 50 102 69q-19 -36 -28 -75q-11 -42 -11 -74q0 -24 6 -41q6 -18 17 -20q11 0 34 38l51 84q26 44 57 85 q27 36 53 42q8 2 17 1q19 0 39 -8q62 -17 114 -56q23 -17 30 -31t7 -37q-2 -50 -22 -95q-26 -57 -93 -79q-66 -22 -148 -31q-34 -4 -52 -15q-8 -5 -1 -18q6 -14 29 -28q35 -19 86 -19q35 0 78 9q-47 -68 -104 -100q-96 -52 -188 -54q-35 -2 -36 -11q-2 -11 11.5 -26 t36.5 -27q36 -22 70 -22q18 0 35 6q-33 -61 -62 -87q-49 -45 -131 -47q-38 -1 -91 -9q-27 -88 -42 -134l-16 -51q-3 -9 -7 -23.5t-6 -19.5q-4 -12 -15 -12q-4 0 -10 2q-19 8 -19 33q0 35 15 106q13 68 36 129q-58 90 -69 174z" />
<glyph unicode="B" d="M5 -13q1 1 1 12q-1 6 -1 13.5t1 16.5v35q-1 10 -1 17.5t1 12.5q-1 21 57 58q33 21 151 68q91 33 131 70q35 33 37 97q0 6 -0.5 10.5t-2 8.5t-2.5 6.5t-4 6.5t-3.5 5t-4.5 5.5t-5 5.5q-25 27 -35 78q-1 4 -1.5 6.5t-2.5 5t-3 4t-4 3t-3.5 2t-4 2.5t-4.5 2q-8 5 -15 17 q-6 12 -8 44q-1 13 2 22q6 17 13 20q3 1 2 2q1 -1 0 3l-1 5l-3 22l-5 30q-3 17 -3 29q-1 8 -1 16q0 44 35 91q49 69 168 70q115 -1 170 -70q35 -45 35 -101v-6q-2 -10 -4 -29q-1 -6 -2.5 -16t-1.5 -14q-1 -6 -4 -22q0 -2 -1 -4l-1 -4l4 -2l2 -3l4 -4q8 -14 9 -35 q-3 -30 -9 -44q-7 -12 -15 -17q-1 0 -2 -1q-17 -7 -21 -20q-1 -2 -1 -4q-6 -36 -16 -51q-12 -20 -33 -46q-8 -9 -6 -29q-1 -60 36 -97q36 -35 130 -70l1 -1q43 -15 85 -33q79 -36 109 -65q16 -16 14 -26q1 -9 1 -31q-1 -9 -1 -17.5t1 -17.5v-30q-1 -12 0 -13z" />
<glyph unicode="C" d="M2 610q0 2 2 6q4 6 12 11q3 3 11 9q16 12 20 16q7 6 28 6q20 0 37 15q16 15 20 39q4 25 10 30l6 6q2 2 14 12q19 18 58 44q40 30 86 57q63 35 103 40q14 0 28 1h45q16 -1 47 -1q40 0 40 -2q-1 -4 -29 -14q-42 -15 -93 -42q-102 -54 -102 -106q0 -21 16 -41l11 -13 q10 -14 21 -27l6 -9q1 -1 3 -4q0 -5 -2 -7l-3 -4l-1 -1q-1 -1 -2.5 -2t-4 -3.5t-5.5 -4.5q-29 -25 -51 -46l-14 -12q-1 -1 -3 -4q-5 -4 -10 -4q-4 0 -5 3q-43 50 -72 61q-13 5 -25 5q-23 0 -44 -17q-7 -5 -10 -15q-6 -16 -6 -36q0 -7 -2 -9l-5 -5q-3 -3 -11 -9l-20 -18 q-5 -5 -16 -3q-8 0 -13 7q-6 6 -13 15q-8 8 -24 26q-5 5 -12.5 13.5t-10.5 11.5l-10 11q-5 6 -5 14zM132 68q0 11 8 19l261 253l77 -88l-251 -247q-9 -9 -19 -10h-5q-9 0 -14 6l-49 47q-8 8 -8 20zM354 508q0 5 5 10l73 64q7 5 11 5q4 -1 10 -6l420 -489q7 -7 7 -20 q-2 -12 -9 -19l-50 -41q-7 -7 -20 -7q-10 0 -19 9l-424 484q-4 4 -4 10zM590 521l68 72q22 24 29 44q10 28 10 88v6q0 19 5 41q10 40 71 78q31 19 73 38q6 2 10 2h2q9 -3 9 -13q0 -4 -2 -8l-7 -12l-13 -24q-5 -9 -15 -25l-19 -37q-4 -8 -4 -16q0 -13 10 -28q9 -14 30.5 -29 t37.5 -16h7q25 0 41 19q12 15 25 37q5 7 15 23q10 15 22 35q3 4 7 7q7 5 13 -3q3 -4 4 -14q2 -28 2 -57v-19q-2 -60 -19 -93q-22 -42 -57 -59q-22 -10 -52 -10q-22 0 -47 5q-11 2 -21 2q-19 0 -37 -7q-25 -10 -45 -26l-84 -81z" />
<glyph unicode="D" horiz-adv-x="1022" d="M0 512q0 27 19 46q18 18 45 18q21 0 40 -14q16 -13 21 -37l154 -51q25 46 70 74q44 28 99 28q31 0 59 -9t52 -27l228 229q-9 16 -13 30q-6 15 -6 33q0 53 38 91q37 37 90 37q52 0 91 -37q37 -39 37 -91q0 -53 -37 -90q-38 -38 -91 -38q-18 0 -33 6q-7 2 -31 13l-228 -228 q18 -24 27 -52q9 -29 9 -59q0 -20 -5 -43q-8 -28 -15 -41l195 -139q21 15 37 23q17 8 44 8q52 0 91 -37q37 -39 37 -91q0 -53 -37 -90q-38 -38 -91 -38q-54 0 -90 38q-38 36 -38 90q0 12 3 24l3 11q1 3 3 11l-194 138q-29 -29 -60 -41q-40 -15 -75 -15q-80 0 -136 56 t-56 136q0 5 1 8v7q0 6 2 14l-153 51q-8 -6 -19 -11q-10 -5 -23 -5q-28 0 -45 19q-19 17 -19 45z" />
<glyph unicode="E" d="M153 794q1 2 1 9q-1 3 1 12q5 22 13 32q25 43 101 78q45 20 79 20q24 0 43 -10l461 -238l-1 1l9 -6q8 -11 9 -14q0 -6 1 -10l-1 -574q1 -13 -12 -26q-11 -11 -28 -13q-22 2 -31 9q-16 12 -17 30q1 -1 1 16.5v65.5v86.5v94.5v183q-1 42 -1 64t1 23q-2 5 0 7q0 6 -5 8l-8 4 q-2 1 -69 38q-24 12 -71.5 38t-70.5 38q-116 62 -139 74q-65 34 -63 33q-4 2 -24 4q-17 0 -47 -12q-14 -10 -21 -14q-16 -12 -18 -13q-16 -16 -17 -21l418 -233q6 -4 13 -12q4 -5 6 -17l-1 -562q1 -4 -1 -10q-1 -2 -2.5 -4t-1.5 -4q-2 -5 -6 -6q-3 -2 -7 -6q-4 0 -5 -1 q-2 -2 -4 -2h-4q-1 -1 -2.5 -1t-2.5 1q-1 -1 -2 -1t-3 1q-4 0 -10 3q-2 1 -4 1q-1 1 -67 43q-38 22 -139 86l-142 89q-18 11 -37 22.5t-28 17t-12 7.5q-13 9 -17 16q-10 12 -9 18z" />
<glyph unicode="F" d="M0 63v503l512 -243l512 241v-500zM0 707v124l1024 1v-126l-512 -241z" />
<glyph unicode="G" d="M51 200v58v127v128v63q0 4 1 7q0 8 8 8q4 0 11 -4q2 -1 72 -37q113 -59 130 -68q44 -24 128 -67q58 -31 65 -34q12 -7 24 -9q14 -2 22 -2q7 0 23 2q11 2 23 9q11 4 66 34q57 29 128 67q12 6 59 31t71 37q16 9 33.5 17.5t26 13t11.5 6.5q7 4 12 4q4 0 6 -2q2 -3 2 -13v-63 v-128v-127v-58q0 -15 -17 -32t-34 -17h-820q-16 0 -33 17q-18 18 -18 32zM54 722q-1 3 -1 6q0 6 4 10q6 7 22 7h866q16 0 22 -7q5 -4 5 -11q0 -3 -1 -5q-7 -21 -29 -33q-16 -8 -68 -36q-69 -36 -128 -69q-40 -22 -126 -67q-16 -9 -31.5 -17.5t-22.5 -12t-8 -4.5 q-5 -3 -21 -7q-12 -3 -25 -3t-25 3q-18 4 -21 7q-1 1 -8 4.5t-22.5 12t-31.5 17.5q-84 44 -125 67l-128 69q-60 31 -69 36q-23 12 -28 33z" />
<glyph unicode="H" horiz-adv-x="1085" d="M0 499q0 -179 4 -223q3 -46 34.5 -81.5t76.5 -39.5q126 -14 276 -14q151 0 279 14q45 4 75.5 39t34.5 82q5 102 5 223q0 122 -5 222q-4 47 -34.5 82t-75.5 40q-154 15 -279 15t-276 -15q-45 -5 -76.5 -40.5t-34.5 -81.5q-4 -43 -4 -222zM123 572q0 23 1 53t1 54 q1 23 16 40t38 20q58 5 133 5q89 0 144 -5l39 -4l-5 -53l-34 5q-50 6 -144 6q-70 0 -103 -4q-23 -3 -26 -32q-1 -7 -1 -85t1 -86q3 -29 26 -31q53 -5 103 -5l94 3l35 3v93h-101l-57 54q13 -1 67 -1h56q63 1 99 1q60 0 98 -8q54 -8 56 -59q4 -44 4 -107q0 -56 -4 -108 q-1 -21 -15.5 -37.5t-37.5 -20.5q-43 -8 -134 -8q-63 0 -141 8l-47 7v129q-58 1 -105 6q-23 3 -38 20q-5 6 -8 11.5t-5 9t-2.5 12.5t-1 14t-0.5 20.5v25.5q-1 30 -1 54zM343 314l37 -2q83 -5 92 -5q45 0 102 6q27 2 28 30q1 9 1 86t-1 86q-1 29 -28 31q-25 3 -73 4v-138 q-40 -6 -46 -6q-50 -6 -112 -6v-86z" />
<glyph unicode="I" horiz-adv-x="1085" d="M123 572q0 -24 1 -54t1 -55q1 -21 16 -38t38 -20q47 -5 105 -6v-129l47 -7q78 -8 141 -8q91 0 134 8q23 4 37.5 20.5t15.5 37.5q4 52 4 108q0 63 -4 107q-2 51 -56 59q-38 8 -98 8q-36 0 -99 -1h-56q-54 0 -67 1l57 -54h101v-93l-35 -3l-94 -3q-50 0 -103 5q-23 2 -26 31 q-1 8 -1 86t1 85q3 29 26 32q33 4 103 4q94 0 144 -6l34 -5l5 53l-39 4q-55 5 -144 5q-75 0 -133 -5q-23 -3 -38 -20q-5 -6 -8 -11.5t-5 -9.5t-2.5 -12.5t-1 -14t-0.5 -21v-25.5q-1 -30 -1 -53zM343 314v86q63 0 112 6q5 0 46 6v138q48 -1 73 -4q27 -2 28 -31q1 -9 1 -86 t-1 -86q-1 -28 -28 -30q-57 -6 -102 -6q-10 0 -92 5z" />
<glyph unicode="J" horiz-adv-x="4731" d="M0 503q0 79 3 108q1 21 15.5 38t37.5 21q58 5 133 5q88 0 145 -5q7 -3 38 -6l-5 -50q-18 0 -34 4q-63 6 -144 6q-53 0 -102 -4q-25 -3 -27 -32q-2 -14 -2 -85q0 -70 2 -86q1 -28 27 -31q62 -5 102 -5q10 0 64 2q26 2 31 2l35 3v122h60v-167l-21 -3l-27 -3q-67 -7 -142 -7 t-133 5q-23 4 -37.5 21t-15.5 40q-3 26 -3 107zM476 333v198q0 67 1 80q2 21 17 38t36 21q60 5 136 5q77 0 134 -5q22 -4 37 -21q3 -3 5 -6.5t4 -6.5t3 -7.5t2 -6.5t1.5 -8t1 -9t0.5 -11.5v-12v-14.5v-17q0 -8 0.5 -26.5t0.5 -25t-2.5 -19t-7 -18.5t-13.5 -12.5t-23 -10.5 l-4 -2l-3 -1l57 -102h-67l-51 95q-2 0 -24 -2q-42 -2 -51 -2q-38 0 -106 5q-18 3 -25 3v-99h-59zM535 485q12 -3 25 -4q29 -4 106 -4q63 0 101 5q5 1 9.5 2.5t7.5 4t5 5t3.5 7l2.5 7.5t1 9.5v10v11.5v11v12v11.5v10t-1 9.5t-2.5 8t-3.5 7.5t-5 5.5t-7.5 4t-9.5 2 q-49 4 -101 4q-54 0 -103 -4q-20 -2 -24 -16t-4 -50v-16v-53zM946 503q0 79 3 108q1 21 15.5 38t35.5 21q62 5 136 5q87 0 144 -5q7 -3 38 -6l-5 -50q-1 0 -25 3q-5 1 -9 1q-62 6 -143 6q-54 0 -103 -4q-9 -1 -15 -4t-8.5 -10t-3 -10.5t-0.5 -16v-15.5q-1 -15 -1 -35h235 v-51h-235q0 -22 1 -36v-15.5t0.5 -16t3 -10.5t8.5 -10t15 -4q62 -5 103 -5q65 0 143 8q5 0 34 4l5 -51l-38 -5q-67 -7 -144 -7q-74 0 -136 5q-21 4 -35.5 21.5t-15.5 39.5q-3 26 -3 107zM1413 333v341h60v-341h-60zM1571 333v170q0 59 3 111q2 21 17 38t36 20q23 3 78 3 q68 0 82 -7q13 -8 22 -24q14 23 31.5 27t73.5 4q58 0 80 -3q21 -3 35.5 -19.5t16.5 -38.5q3 -52 3 -111v-170h-59v170q0 82 -1 89q-1 5 -2 9.5t-2 7.5t-4 5.5t-4.5 4t-6.5 3t-7.5 2t-9.5 0.5h-11h-13.5h-14.5q-34 0 -46 -2q-27 -5 -27 -33q-2 -14 -2 -51v-205h-58v205 q0 37 -2 51q0 12 -7.5 21.5t-19.5 11.5t-47 2h-14q-25 0 -34.5 -1t-16.5 -8t-9 -23q-1 -7 -1 -89v-170h-59zM2147 343v321l60 6q64 7 134 7q64 0 135 -7q21 -2 36 -19.5t17 -39.5q1 -12 1 -108t-1 -107q-2 -24 -17 -40.5t-36 -18.5q-46 -7 -135 -7q-24 0 -134 5zM2207 391 q5 -2 16 -3q3 0 9.5 -0.5t8.5 -1.5q2 0 28 -2q28 -3 72 -3q40 0 102 5q10 1 16 4t8.5 11t3 12.5t0.5 20v23.5q1 23 1 46q0 24 -1 47v18v15t-1 12.5t-2.5 9.5t-4.5 7t-8 5t-12 3q-77 5 -102 5q-30 0 -100 -5q-10 0 -34 -3v-226zM2619 503q0 90 1 108q2 22 17.5 39.5 t36.5 19.5q69 7 135 7q67 0 136 -7q21 -1 35 -18q12 -16 14.5 -34t2.5 -57q0 -3 0.5 -19t0 -20.5t-2 -17.5t-5 -18t-9 -13t-15 -12t-21.5 -5q-46 -7 -136 -7q-53 0 -103 3q-21 3 -28 3q0 -28 2 -38q1 -27 26 -29q52 -7 103 -7q65 0 143 8q5 0 34 4l4 -51l-37 -5 q-69 -7 -144 -7q-66 0 -135 7q-22 2 -37 19t-17 40q-1 11 -1 107zM2678 506q18 0 28 -3l103 -3q43 0 100 5q7 0 12.5 1.5t8.5 5.5t5 7t3 10t1 10.5v12.5v12v11v12t-1 10t-3 10t-5 7t-8.5 5.5t-12.5 1.5q-36 4 -100 4q-26 0 -103 -5q-14 -2 -20.5 -13t-7 -21.5t-0.5 -37.5 v-14v-28zM3085 577q0 21 5 37.5t12 27t21 18t24 11t30.5 5.5t31 2t34 -0.5t32.5 -0.5q75 0 144 -7q15 0 37 -5l-4 -51q-29 4 -34 4q-69 7 -143 7q-7 0 -57 -2l-44 -2q-19 -2 -24.5 -10.5t-5.5 -32.5t5 -32q1 -2 2.5 -3.5t3.5 -2.5l4 -2t5.5 -1.5t6.5 -1t8.5 -0.5t10 -0.5 t13 -1t15.5 -0.5q50 -2 57 -2q12 0 37.5 0.5t36.5 0.5t31 -1.5t29 -5.5t21.5 -11t18 -18t10 -27t4.5 -38q0 -21 -5 -37.5t-12 -27.5t-21 -18.5t-24 -11t-30.5 -5.5t-30.5 -2t-33.5 0.5t-31.5 0.5q-77 0 -146 7l-37 5l5 51q28 -4 34 -4q62 -8 144 -8q40 0 98 5q20 1 26 10 t6 33q0 23 -6.5 32.5t-25.5 10.5q-75 5 -98 5q-11 0 -36.5 -0.5t-36.5 -0.5t-31 1.5t-29.5 5.5t-22.5 11t-19 18t-10.5 27.5t-4.5 37.5zM3555 333v341h59v-341h-59zM3712 503q0 58 2 108q2 22 17 39.5t36 19.5q69 7 135 7q75 0 144 -7q1 0 3.5 -0.5t7 -1t7.5 -0.5 q14 -1 19 -3l-3 -51q-20 0 -36 4q-67 7 -142 7q-23 0 -103 -5q-6 -1 -10.5 -2.5t-7.5 -3.5t-5 -6.5t-3 -7t-1.5 -9.5t-0.5 -11v-14v-16q-1 -23 -1 -47l1 -86q3 -27 28 -31q63 -5 103 -5q11 0 94 4l35 3v122h59v-167q-18 0 -47 -6q-69 -7 -141 -7q-89 0 -135 7q-21 2 -36 19 t-17 40q-2 46 -2 107zM4189 333v331l58 6q64 7 132 7q64 0 134 -7q21 -2 36 -19.5t17 -39.5q1 -12 1 -108v-170h-58v170l-1 86q-3 28 -28 31q-80 5 -101 5q-23 0 -92 -4q-26 -2 -39 -4v-284h-59z" />
<glyph unicode="K" horiz-adv-x="2589" d="M0 503q0 79 3 108q1 21 15.5 38t37.5 21q58 5 133 5q88 0 145 -5q7 -3 38 -6l-5 -50q-18 0 -34 4q-63 6 -144 6q-53 0 -102 -4q-25 -3 -27 -32q-2 -14 -2 -85q0 -70 2 -86q1 -28 27 -31q62 -5 102 -5q10 0 64 2q26 2 31 2l35 3v122h60v-167l-21 -3l-27 -3q-67 -7 -142 -7 t-133 5q-23 4 -37.5 21t-15.5 40q-3 26 -3 107zM6 -133v321l59 6q64 7 135 7q64 0 134 -7q21 -2 36 -19.5t17 -39.5q1 -11 1 -108q0 -96 -1 -107q-2 -24 -17 -40.5t-36 -18.5q-46 -7 -134 -7q-56 0 -135 6q-51 5 -59 7zM65 -86q15 -3 34 -4q72 -5 101 -5q49 0 101 5 q6 1 10.5 2.5t7.5 3.5t5 6t3 7t1.5 10t0.5 11.5v14.5v16q1 23 1 46l-1 86q-3 28 -28 31q-52 5 -101 5q-53 0 -101 -5q-10 0 -34 -3v-227zM476 333v198q0 67 1 80q2 21 17 38t36 21q60 5 136 5q77 0 134 -5q22 -4 37 -21q3 -3 5 -6.5t4 -6.5t3 -7.5t2 -6.5t1.5 -8t1 -9 t0.5 -11.5v-12v-14.5v-17v-26.5t0.5 -25t-2 -19t-7 -18.5t-13.5 -12.5t-23 -10.5l-4 -2l-3 -1l57 -102h-67l-51 95q-2 0 -24 -2q-42 -2 -51 -2q-38 0 -106 5q-18 3 -25 3v-99h-59zM477 27q0 72 2 108q2 22 17 39.5t35 19.5q70 7 136 7q67 0 136 -7q22 -2 35 -18 q12 -16 15 -34.5t3 -57.5q0 -32 -3 -48q-5 -51 -50 -56q-57 -7 -136 -7l-102 3q-21 3 -28 3v-14.5v-13.5t0.5 -11t1.5 -10t3 -7.5t5 -6.5t7.5 -3.5t10.5 -1.5q53 -6 102 -6q74 0 143 7q11 0 35 6l4 -53q-33 -4 -38 -4q-67 -7 -144 -7q-66 0 -136 7q-21 2 -35.5 19t-16.5 40 q-2 22 -2 107zM535 485q12 -3 25 -4q29 -4 106 -4q63 0 101 5q5 1 9.5 2.5t7.5 4t5 5t3.5 7l2.5 7.5t1 9.5v10v11.5v11v12v11.5v10t-1 9.5t-2.5 8t-3.5 7.5t-5 5.5t-7.5 4t-9.5 2q-49 4 -101 4q-54 0 -103 -4q-20 -2 -24 -16t-4 -50v-16v-53zM537 30q17 0 28 -3 q82 -2 102 -2q64 0 100 4q9 0 15 3t9 6t4.5 10.5t1.5 11v14.5v14v13v14t-1.5 10.5t-4.5 10.5t-9 6t-15 3q-36 4 -100 4q-54 0 -102 -5q-5 -1 -9.5 -2.5t-7.5 -4.5t-5 -6t-3 -8.5t-2 -10t-1 -12v-12.5v-14.5v-15.5v-28zM943 101q0 24 5 42t18.5 29t24 17.5t33.5 8.5 q24 4 34 4h14.5h24.5q29 0 36 -1q77 0 144 -7q5 0 38 -4l-4 -52q-17 4 -35 4q-55 7 -143 7q-49 0 -101 -4q-18 -2 -24 -10.5t-6 -32.5t6 -32q1 -2 2.5 -3.5t3 -2.5t3.5 -2t5.5 -1.5t6 -1t8.5 -0.5t10.5 -0.5t13 -1t15.5 -0.5q52 -2 57 -2q13 0 41 0.5t38 0.5t31 -2 t28.5 -5.5t20.5 -11t17.5 -18.5t8.5 -27t4 -38q0 -24 -5 -42t-18.5 -29t-23.5 -17.5t-33.5 -9t-33.5 -2.5h-15h-25h-35q-78 0 -145 7q-5 0 -38 4l4 53q22 -6 35 -6q55 -7 144 -7q47 0 99 5q18 1 24.5 10t6.5 33q0 22 -7 32q-1 2 -2.5 3.5t-3.5 2.5t-3.5 2t-5 1.5t-6 1 t-8 0.5t-10 0.5t-13 1t-15.5 0.5q-39 3 -56 3q-9 0 -31.5 -0.5t-33.5 -0.5t-31 1.5t-30.5 5.5t-24.5 11t-21.5 18t-12.5 27.5t-5 37.5zM946 503q0 79 3 108q1 21 15.5 38t35.5 21q62 5 136 5q87 0 144 -5q7 -3 38 -6l-5 -50q-1 0 -25 3q-5 1 -9 1q-62 6 -143 6 q-54 0 -103 -4q-9 -1 -15 -4t-8.5 -10t-3 -10.5t-0.5 -16v-15.5q-1 -15 -1 -35h235v-51h-235q0 -22 1 -36v-15.5t0.5 -16t3 -10.5t8.5 -10t15 -4q62 -5 103 -5q65 0 143 8q5 0 34 4l5 -51l-38 -5q-67 -7 -144 -7q-74 0 -136 5q-21 4 -35.5 21.5t-15.5 39.5q-3 26 -3 107z M1413 -143v341h60v-341h-60zM1413 333v341h60v-341h-60zM1570 27q0 79 3 108q2 22 17 39.5t36 19.5q67 7 134 7q77 0 144 -7q2 -1 10 -1q27 -3 28 -3l-4 -52q-28 4 -35 4q-55 7 -143 7q-50 0 -103 -5q-7 -1 -12 -3t-8 -5t-4.5 -7t-2.5 -9.5t-1 -12.5v-15v-18q-1 -23 -1 -47 q0 -23 1 -46v-21v-18t1 -12.5t4 -10.5t8.5 -5.5t14.5 -3.5q53 -5 103 -5l93 3q13 2 36 3v123h60v-167q-13 0 -48 -6q-67 -7 -141 -7q-89 0 -134 7q-21 2 -36 18.5t-17 40.5q-3 25 -3 107zM1571 333v170q0 59 3 111q2 21 17 38t36 20q23 3 78 3q68 0 82 -7q13 -8 22 -24 q14 23 31.5 27t73.5 4q58 0 80 -3q21 -3 35.5 -19.5t16.5 -38.5q3 -52 3 -111v-170h-59v170q0 82 -1 89q-1 5 -2 9.5t-2 7.5t-4 5.5t-4.5 4t-6.5 3t-7.5 2t-9.5 0.5h-11h-13.5h-14.5q-34 0 -46 -2q-27 -5 -27 -33q-2 -14 -2 -51v-205h-58v205q0 37 -2 51q0 12 -7.5 21.5 t-19.5 11.5t-47 2h-14q-25 0 -34.5 -1t-16.5 -8t-9 -23q-1 -7 -1 -89v-170h-59zM2047 -143v331l57 6q66 7 132 7q65 0 136 -7q20 -2 35 -19.5t17 -39.5t2 -108v-170h-60v170l-1 86q-1 28 -27 31q-53 5 -102 5q-57 0 -90 -4q-27 -2 -40 -4v-284h-59z" />
<glyph unicode="L" horiz-adv-x="2279" d="M0 707q0 70 3 94q1 19 14 34t32 19q43 4 116 4q83 0 126 -4q6 -3 16 -4q14 -2 17 -3l-5 -44q-1 0 -3 0.5t-5 1t-6 0.5l-15 2q-50 7 -125 7q-48 0 -89 -6q-22 -2 -23 -26q-2 -14 -2 -75t2 -75q1 -24 23 -26q45 -5 89 -5l83 3q11 2 32 3v107h50v-146q-3 0 -8 -1l-17 -3 q-6 -1 -15 -1q-45 -6 -125 -6q-73 0 -116 4q-20 3 -32.5 18t-13.5 35q-3 21 -3 93zM4 152v280l52 6q67 5 117 5t118 -5q18 -2 31.5 -17.5t15.5 -34.5v-188q-2 -20 -15.5 -35t-31.5 -16q-43 -6 -118 -6q-6 0 -64 2l-53 2zM56 194q15 -3 30 -4q62 -5 87 -5q47 0 89 5 q8 1 13 3.5t7.5 5t3.5 9t1.5 10t0 15.5t-0.5 18q1 21 1 41l-1 75q-1 24 -25 26q-45 6 -89 6q-42 0 -87 -6q-8 0 -15 -1h-15v-198zM416 558v174q0 58 1 69q2 19 15 34t31 19q44 4 118 4t117 -4q19 -4 32 -19q11 -14 13 -27.5t2 -58.5q0 -7 0.5 -20.5t0 -19t-1 -15.5t-3 -15 t-7 -11.5t-11.5 -10.5t-17 -7l-7 -3l51 -89h-59l-45 84q-31 -4 -65 -4q-51 0 -93 5q-7 0 -10 1t-9 1l-3 1v-88h-50zM417 198v188q2 20 15.5 35t32.5 17q68 5 117 5t119 -5q19 -1 30 -17q15 -19 15 -79v-15v-15.5t-1 -14t-2.5 -14.5t-5 -11t-8 -10.5t-12 -6.5t-16.5 -4 q-42 -7 -119 -7q-48 0 -88 3q-20 2 -27 2q0 -22 2 -32q1 -24 25 -26q45 -6 88 -6q66 0 125 7l14 2q8 1 16 1l4 -44q-16 -4 -32 -4q-72 -6 -127 -6q-44 0 -117 6q-19 1 -32.5 16t-15.5 35zM466 692l5 -2q5 0 17 -3q58 -2 93 -2q60 0 89 4q22 1 22 26q2 14 2 34q0 21 -2 33 q0 25 -22 26q-41 6 -89 6q-49 0 -89 -6q-13 0 -18.5 -8t-6.5 -17.5t-1 -33.5v-12v-45zM467 294q5 0 12 -1t15 -1q70 -2 88 -2t88 2q5 0 8.5 1.5t6 4t4.5 4t3 5.5t1.5 6.5t1 7.5t0.5 7.5v8.5v8v7.5v7.5t-0.5 7t-1 7.5t-1.5 6t-3 5.5t-4.5 4t-6 3.5t-8.5 1.5q-31 4 -88 4 q-43 0 -88 -6q-5 0 -9 -1t-7 -4t-5 -5.5t-3 -7.5t-2 -8.5t-1 -10.5v-11v-13v-13v-25zM823 356q0 21 4.5 37t16 25.5t20.5 15t28 7.5q20 3 30 3h13.5h20.5q24 0 32 -1q61 0 126 -5q8 0 33 -4l-3 -45q-12 3 -30 3q-62 7 -126 7q-3 0 -49 -2l-39 -2q-15 -2 -20.5 -10.5 t-5.5 -27.5t5 -27q1 -2 2.5 -3.5t3 -2.5t4.5 -2t5.5 -1t7.5 -0.5t9.5 -1t12.5 -1t15 -0.5q46 -2 49 -2q10 0 31.5 0.5t31.5 0.5t27.5 -1.5t25.5 -5t20 -9.5t17 -15.5t9 -24t4 -33.5q0 -21 -5 -36.5t-17.5 -25t-22 -15.5t-30.5 -8q-21 -3 -29 -3h-12h-22q-24 0 -28 1 q-50 0 -127 6q-18 0 -31 4l3 44q8 0 16 -1l14 -2q46 -7 125 -7q42 0 87 5q17 1 22.5 8.5t5.5 28.5q0 20 -5.5 28t-22.5 9q-68 5 -87 5q-8 -1 -32 -1h-20h-13q-10 0 -29.5 2.5t-29 8t-21 15t-16 25.5t-4.5 37zM825 707q0 45 3 94q2 19 14.5 34t30.5 19q44 4 117 4 q84 0 127 -4q5 -3 17 -4q13 -1 16 -3l-4 -44l-31 4q-50 7 -125 7q-49 0 -88 -6q-23 -2 -23 -26q0 -8 -1 -21v-31h204v-44h-204l1 -32v-22q0 -24 23 -26q43 -5 88 -5q53 0 125 6q6 0 31 4l4 -44q-12 -4 -33 -4q-43 -6 -127 -6q-73 0 -117 4q-19 3 -31 17.5t-14 35.5 q-3 44 -3 93zM1233 144v297h51v-297h-51zM1233 558v299h51v-299h-51zM1369 292q0 70 3 94q2 19 15.5 34.5t31.5 17.5q67 5 118 5q60 0 125 -5q1 -1 33 -4l-3 -45q-11 3 -32 3q-59 7 -123 7q-43 0 -90 -6q-7 0 -11.5 -1.5t-7 -4t-4.5 -6.5t-2.5 -8.5t-0.5 -11v-13.5v-16 q-1 -19 -1 -40t1 -41v-18t0.5 -14.5t1.5 -11.5t3.5 -8.5t7.5 -5.5t13 -3q43 -5 90 -5l80 3q10 1 32 3v107h51v-146l-41 -5q-72 -6 -122 -6q-75 0 -118 6q-18 1 -31.5 16t-15.5 35q-3 23 -3 94zM1370 558v149q0 53 3 96q2 20 15 34.5t31 17.5q19 3 69 3q28 0 37.5 -0.5t23 -3 t19.5 -8t10 -16.5q11 20 27 24t65 4q50 0 71 -3q18 -3 30.5 -17.5t13.5 -34.5q3 -43 3 -96v-149h-52v149q0 71 -1 78q-2 20 -14 24.5t-51 4.5q-27 0 -37.5 -1t-18.5 -8t-8 -22v-225h-52v179q0 32 -2 46q0 20 -13.5 25.5t-50.5 5.5q-27 0 -37 -1t-18 -7.5t-10 -20.5 q-1 -7 -1 -78v-149h-52zM1786 144v288l50 6q65 5 115 5q49 0 117 -5q19 -2 32.5 -17t15.5 -35v-242h-51v148l-1 75q-1 24 -24 26q-50 6 -89 6q-16 0 -79 -4q-22 -3 -34 -3v-248h-52z" />
<glyph unicode="M" horiz-adv-x="860" d="M32 703l5 -336l15 -6q24 -8 31 -8q4 0 43 16q23 9 96 37q50 18 79 30v89q-1 40 -1 88l165 -22q35 -6 52 -9v-365q50 -17 125 -40q119 84 182 133v371q0 13 -53 16q-10 1 -39.5 3.5t-67.5 6t-78 7.5l-205 21q12 74 14 88l-100 5q0 -3 -16 -85h-27q-6 0 -25 -4 q-5 -1 -11 -2t-9.5 -1.5t-5.5 -0.5q-132 -20 -145 -22q-2 -1 -7 -1q-1 0 -4 -0.5t-4 -1.5q-9 -2 -9 -7z" />
<glyph unicode="N" d="M61 554l268 -201l-95 -356l278 214l278 -214l-95 356l268 201l-329 1l-122 344l-122 -344z" />
<glyph unicode="O" d="M0 576q0 3 1 5q0 3 5 8l4 4l122 84l6 3l6 4q7 3 15 5q1 0 6.5 1.5t8.5 2.5q4 0 7 1h7h181v194q0 9 6 15q5 6 14 6h46q9 0 15 -6q6 -8 6 -15v-880q0 -7 -6 -15q-6 -6 -15 -6h-46q-9 0 -14 6q-6 6 -6 15v450h-181q-5 0 -7 1q-5 0 -7 1q-5 0 -8 1q-5 1 -15 5q-11 4 -13 6 l-6 3l-122 84l-4 4q0 1 -1 2l-2 2q-3 5 -3 9zM486 796h350h8q2 -1 7 -1l14 -4q8 -2 15 -5l7 -3q2 -1 5 -4l122 -83l4 -4l4 -4q2 -4 2 -10v-4q-1 -4 -6 -9l-4 -4l-122 -83q-1 -1 -5 -3l-7 -3q-4 -2 -7 -3q-10 -4 -15 -5q-1 0 -3.5 -0.5t-3.5 -1.5q-3 -1 -7 -1h-8h-309z" />
<glyph unicode="P" d="M41 448q0 195 138 333t333 138t333 -138t138 -333t-138 -333t-333 -138t-333 138t-138 333zM143 448q0 -153 108 -261t261 -108t261 108t108 261t-108 261t-261 108t-261 -108t-108 -261zM476 433v281h72v-251l153 -153l-51 -51z" />
<glyph unicode="Q" d="M172 413q5 31 28 46q17 15 40 15q6 0 12 -1q31 -6 47 -27l121 -159l302 486q18 25 45 32q8 2 16 2q20 0 38 -12q25 -14 32 -44q2 -9 2 -17q0 -21 -12 -37l-357 -574q-13 -16 -25 -23q-18 -10 -33 -10h-1h-1h-1q-20 0 -31 7q-19 11 -25 21l-184 241q-14 21 -14 41 q0 7 1 13z" />
<glyph unicode="R" d="M215 563q0 -25 16 -41l47 -45q94 -92 159 -153l35 -33q9 -9 19 -13q9 -4 21 -4q11 0 22 4q9 4 18 13l35 33q33 31 160 153q11 11 21.5 21t16.5 16l8 8q16 16 16 41t-16 41q-18 18 -38 18q-23 0 -43 -18l-200 -192l-200 192q-18 18 -42 18q-21 0 -39 -18q-16 -16 -16 -41z " />
<glyph unicode="S" d="M215 334q0 24 16 40l47 45q23 23 81 79q24 22 78 74l35 33q9 9 19 13q9 4 21 4q11 0 22 -4q9 -4 18 -13l35 -33q54 -52 78 -74l82 -79q11 -11 21.5 -21t16.5 -16l8 -8q16 -16 16 -40q0 -26 -16 -42q-18 -18 -38 -18q-25 0 -43 18l-200 192l-200 -192q-18 -18 -42 -18 q-21 0 -39 18q-16 16 -16 42z" />
<glyph unicode="T" d="M277 653h471l-236 -410z" />
<glyph unicode="U" d="M276 243l236 410l235 -410h-471z" />
<glyph unicode="V" horiz-adv-x="860" d="M0 618q0 -5 4 -9l4 -5q20 -5 35 -12l-21 -276q-2 -28 -2 -32v-8l26 2q0 2 1 3q0 2 2 16l20 205q0 4 1.5 14t2.5 20t1 18l2.5 12.5t1.5 10.5l14 -2q86 -27 97 -32q3 -1 9 -1l18 1q-1 -11 -1 -49t-1 -49q-5 -65 -5 -102q0 -4 -0.5 -9.5t-1 -16.5t-0.5 -20q-2 -46 -2 -53 l-4 -97l14 -5l17 13q1 9 1.5 30t0.5 32q1 14 2.5 37.5t1.5 29.5l3 54q7 100 11 184q44 18 66 30v8l121 18q31 5 78 11.5t64 9.5v-86q1 -38 1 -84q10 -4 16 3v169q24 5 94 14q0 -7 10 -7q53 0 65 -1l6 -113q1 -20 3 -49t3 -48t1 -33h2q1 -1 2 -1q0 -3 9 -1l10 2l-8 265l36 6 v7q-52 7 -226 35l-13 1q-15 0 -20 -1l-572 -57v-2z" />
<glyph unicode="W" horiz-adv-x="860" d="M131 393q0 -10 2 -22q1 -5 13 -19q11 -13 16 -14.5t39 -4.5l37 -3q0 -9 -1 -18v-20q0 -8 8 -16q0 -6 2 -12q0 -1 22 -19q15 -12 25.5 -15t33.5 -3q16 0 26 1q121 6 244 60q41 20 62.5 40t27.5 50q2 12 2 17q0 49 -67 82l-8 3q-2 0 -3 1l-2 1q5 12 53 130l48 120 q12 22 12 32q0 2 -1 4q-3 9 -24 12l-30 7q-9 1 -27 5q-4 1 -8.5 2t-7.5 1.5t-4 0.5q-21 3 -22 3q-1 -1 -4 -1q-7 0 -11 -1q-10 -1 -17 -10q-4 -4 -9.5 -16t-9 -21.5t-3.5 -10.5q-36 -87 -71 -164q-6 -25 -16 -29q-12 0 -20 3q-5 1 -11 1q-105 21 -176 21h-7q-44 0 -54 -3 q-7 -4 -25 -41q-22 -45 -29 -88q-5 -30 -5 -46zM394 381v6q0 9 3 14q5 7 23 13q60 19 88 20q-11 -15 -32 -26q-19 -10 -82 -27zM397 348q54 13 63 17q38 10 57 23q19 14 38 43q41 0 55 -8q29 -12 29 -38q0 -6 -1 -9q-1 -11 -13 -21q-13 -19 -44 -31q-66 -31 -181 -47z" />
<glyph unicode="X" horiz-adv-x="860" d="M182 649l1 -124q1 -1 5 -2q4 0 6 -2l-5 -1h-6l2 -204q7 -2 24 4q14 5 27 8q1 1 1 4l3 3l121 39q1 1 4 -2q2 -4 4 -2l37 11q7 0 43 -10q1 -1 3 2t4 3v-128q0 -5 2 -7h3q7 0 20 6q14 2 25 10q1 5 20 13l99 40q1 -1 5 -1q13 0 40 12l3 332q-3 1 -31 4l5 24l2 10t2 9.5t1 5.5 l-207 15q-4 -30 -12 -57q-1 1 -1 4q0 2 1 4v3q-25 1 -30 3l-28 -3q-23 -4 -28 -4q-67 -11 -138 -18q-1 0 -3 -0.5t-5 -1t-5 -0.5q-3 0 -6 -0.5t-5 -1t-3 -0.5zM434 578v3q16 0 24 -4h-13z" />
<glyph unicode="Y" horiz-adv-x="860" d="M169 355q0 -11 9 -20q5 -2 17 2l48 11l-6 -117q0 -4 4 -15l2 -4q1 -3 4 -6l3 -1q4 0 7 3l249 94l2 -2l7 3l20 7l6 -19q1 -3 5 -7l7 -6q9 0 12 3l-5 45v7q4 0 6 -1t4 -1l11 3q2 2 3 4q1 3 3 5l29 93l2 7q3 5 3 7q0 11 -6 16l-17 11q-4 1 -7 4l5 21q1 6 5.5 23t7.5 28l8 38 l6 17q0 3 1 5t1 4l5 18l5 28q3 6 3 12q3 10 4 14q0 2 1 5q0 2 1 4v1q1 1 1 4q0 6 3 11q1 1 1 3t1 4t1 5l2 10q0 3 1 4q1 2 1 4l3 9l2 8q4 4 4 8q0 2 -1 3q-4 2 -8 6q-6 4 -27 8q-4 1 -28.5 8t-44.5 12l-39 9h-4q-4 0 -8 -6.5t-6 -12t-2 -6.5l-9 -36q0 -2 -1 -5q-1 -4 -3 -16 q-3 -11 -6 -27q-1 -3 -1 -13v-6q0 -2 -1 -4l-2 -4q-5 -11 -7 -23q-5 -18 -7 -34l-18 -64q-2 1 -6 1q-3 1 -5 1q-5 0 -22 4q-6 0 -34 6l-131 25q-4 0 -16 3l-18 3q-9 3 -18 1t-11 -9q-2 -6 -2 -26q-2 -14 -2 -29q-2 -22 -2 -47q0 -35 -1 -43l-2 -41q0 -10 -0.5 -21.5 t-1 -17.5t-0.5 -9v-4z" />
<glyph unicode="Z" horiz-adv-x="860" d="M30 551q0 -14 13 -21l60 4l6 -17q10 -1 10 -12l2 -70l-88 -7q-1 -9 11 -26l59 4l8 -12q10 -3 10 -14l1 -88l-90 -9q2 -16 14 -36l62 7q9 -5 13 -19q0 -3 7 -2q3 -11 5 -12l57 5v34l492 45v-13q3 -2 19 -1q3 -3 4 -6q2 -7 4 -7l44 4q4 2 5 5q2 6 6 6q0 13 4 18t19 5 q11 2 29 4l15 3q0 7 -22 14q-26 10 -42 10h-3l-7 1l-1 70q1 6 10 10q0 12 4 17q20 6 52 6l11 2q0 7 -22 11q-21 8 -42 9q-4 -1 -12 -1l-1 56l1 5v-1l2 3l3 1v1l4 1q0 15 4 19q8 5 34 5h16l13 2q0 4 -23 9q-19 4 -37 4h-7l-9 1l-1 177l-74 1v-180l-496 -18l-1 201l-67 1v-204 l-88 -4v-1zM186 536l496 20v-89l-495 -29zM187 409l495 32v-101l-492 -43z" />
<glyph unicode="[" horiz-adv-x="860" d="M73 561l26 -146q-1 -2 -0.5 -2.5t2.5 0.5q3 -1 3 -2q-2 -2 -7 -3q-6 -3 -8 -5l1 -50l6 1l72 32l498 -65q-2 -7 5 -14q1 -6 -1 -16q0 -3 -0.5 -6t-1 -5t-0.5 -3q8 -8 18 -7q10 -2 17 5q0 8 -1 16q-1 10 0 19q3 0 6 3q5 2 6 4l23 20l44 -6v251l-61 7q0 3 7 4q7 0 7 7t-1 14 q-2 14 -2 22l-211 6l-79 -23q2 -5 0 -10q-1 -5 -1 -10q0 -6 4 -7q-7 -3 -13 -17q0 -8 20 -6l-28 -11l-3 -8q-6 -3 -11 -4q-8 -4 -14 -6l-9 -105l-157 19l-25 134l-36 2zM480 426l14 116l25 -1l3 -120z" />
<glyph unicode="\" horiz-adv-x="860" d="M237 556l125 -13l-74 -362l16 1l82 356l15 -1l-13 -388q0 -6 7 -7l6 1q8 -2 8 5v4l17 367l19 -321l11 1q2 -1 3 0.5t1 5.5l-11 330l23 5l90 -371l18 1l-2 9l-84 364l137 30l-1 83l-7 3l-225 45l-161 -71v-77z" />
<glyph unicode="]" horiz-adv-x="860" d="M254 621l48 -10l57 -1l-59 -445l-2 -9l9 -5l11 3l1 7l67 430l31 2l3 -349h14l4 349l32 -2l72 -437l11 -3l7 5l-62 454l54 1l47 10v7h-345v-7z" />
<glyph unicode="a" d="M2 761q-1 -16 -1 -32q0 -155 132 -339q14 -27 51 -68q38 -46 97 -105h1q46 -48 104 -98q41 -37 68 -51q119 -86 211 -111q77 -22 138 -22q75 0 129 32q41 23 54.5 37t22.5 42q14 44 14 82q0 10 -1 20q-3 19 -11 21q-8 0 -50 18q-23 9 -92 38l-91 39q-43 17 -50 17h-1 q-13 0 -58 -38q-16 -14 -58 -56q-2 -2 -6 -2q-11 0 -35 16q-62 38 -139 106q-26 21 -32 27l-27 33q-61 68 -107 139q-16 24 -16 35q0 4 2 6q22 20 56 59q39 45 39 58q-2 8 -18 51q-27 62 -38 91q-29 69 -38 92q-17 39 -19 50q0 8 -20 11q-10 2 -21.5 1.5t-25.5 -1.5 q-71 -10 -98 -37q-20 -20 -40.5 -61.5t-25.5 -99.5z" />
<glyph unicode="b" horiz-adv-x="768" d="M0 192v512q0 106 75 181t181 75h256q106 0 181 -75t75 -181v-512q0 -106 -75 -181t-181 -75h-256q-106 0 -181 75t-75 181zM128 192h512v512q0 52 -37 91q-39 37 -91 37h-256q-53 0 -90 -37q-38 -38 -38 -91v-512zM318 64q0 -28 19 -47t47 -19t47 19t19 47t-19 47t-47 19 t-47 -19t-19 -47z" />
<glyph unicode="c" d="M192 128l235 214l149 -406l128 64l-170 395l298 53l-640 512v-832z" />
<glyph unicode="d" d="M225 925q0 12 8 23q10 13 24 13q9 0 14 -1q11 -3 21 -17l101 -198q29 9 58 9q49 0 99 -25q74 -38 104 -119l134 -386q11 -31 11 -62q0 -50 -29 -99q-49 -82 -141 -113q-42 -13 -82 -13q-50 0 -97 21q-83 37 -106 119l-110 396q-8 28 -8 57q0 40 16 80q26 69 86 106 l-99 193q-4 4 -4 16zM366 551q8 -29 35 -42q16 -8 32 -8q11 0 22 4q26 7 42 36q8 16 8 32q0 11 -4 23q-7 27 -35 43q-13 8 -31 8q-11 0 -23 -3q-31 -13 -42 -37q-8 -17 -7 -33q-1 -12 3 -23z" />
<glyph unicode="e" d="M0 448q0 104 39.5 198t110.5 165q70 70 164 109.5t198 39.5t198 -39.5t165 -109.5q70 -71 109.5 -165t39.5 -198q0 -70 -18 -135q-17 -61 -51 -121h-187q-29 0 -57 15q-26 14 -44 38q-33 -27 -71 -40q-40 -14 -84 -14q-104 0 -181 75q-75 73 -75 181t75 181q77 75 181 75 h256v-383h104l1 -2q12 35 17 64q6 33 6 66q0 160 -112 272t-272 112q-159 0 -271 -112q-113 -113 -113 -272q0 -158 113 -271t271 -113q79 0 150 31q66 27 121 82l91 -91q-69 -69 -163 -109q-96 -41 -199 -41q-104 0 -198 39.5t-164 110.5q-71 70 -110.5 164t-39.5 198z M384 447q0 -54 38 -90q36 -38 90 -38q53 0 91 38q37 37 37 90v128h-128q-52 0 -90 -38q-38 -36 -38 -90z" />
<glyph unicode="f" horiz-adv-x="640" d="M0 640q0 132 94 226t226 94t226 -94t94 -226t-94 -226l-35 -39q-35 -40 -77 -104q-114 -176 -114 -335q0 95 -35 183q-65 155 -156 256l-35 39q-94 94 -94 226zM192 640q0 -54 38 -90q36 -38 90 -38q53 0 91 38q37 37 37 90q0 52 -37 91q-39 37 -91 37q-53 0 -90 -37 q-38 -38 -38 -91z" />
<glyph unicode="g" d="M0 448q0 104 39.5 198t110.5 165q70 70 164 109.5t198 39.5t198 -39.5t165 -109.5q70 -71 109.5 -165t39.5 -198t-39.5 -198t-109.5 -164q-71 -71 -165 -110.5t-198 -39.5t-198 39.5t-164 110.5q-71 70 -110.5 164t-39.5 198zM128 448q0 -158 113 -271t271 -113 q159 0 272 113q112 112 112 271q0 160 -112 272t-272 112q-159 0 -271 -112q-113 -113 -113 -272zM447 448v256h129v-229l110 -109l-91 -91l-125 126q-9 6 -17 21q-6 12 -6 26z" />
<glyph unicode="h" d="M0 141v614q0 42 31 73q30 30 72 30h819q40 0 72 -30q30 -28 30 -73v-614q0 -43 -30 -73t-72 -30h-819q-44 0 -72 30q-31 33 -31 73zM103 141h819v614h-819v-614zM205 248v92h256v-92h-256zM205 402v92h256v-92h-256zM205 555v93h256v-93h-256zM564 248v12q0 19 2 49 q2 11 3 11q5 1 14 4q16 5 30 13q43 21 43 50q0 15 -9 29l-19 29q-28 40 -28 90q0 58 19 83q24 30 73 30q51 0 73 -30q19 -27 19 -83q0 -50 -28 -90q-2 -3 -8 -11.5t-8 -12.5t-5.5 -10.5t-5 -12t-1.5 -11.5q0 -15 14 -29q27 -26 59 -34l14 -4q1 0 3 -11q2 -15 2 -49v-12h-256 z" />
<glyph unicode="i" d="M64 289q0 146 103 248l355 349q78 75 182 75q108 -2 181 -76q75 -75 75 -180q-2 -110 -76 -181l-323 -317q-47 -46 -108 -46h-5q-68 0 -114 47q-46 43 -46 108v5q0 71 47 112l127 129l91 -91l-129 -127q-4 -8 -6 -11q-3 -7 -2 -12q0 -14 9 -24q12 -9 23 -8q16 0 22 9 l324 316q38 40 38 91q-2 54 -39 91t-89 37q-57 -2 -90 -38l-357 -348q-65 -66 -65 -153v-5q0 -94 66 -159q62 -65 153 -65h5q97 0 157 66l193 191l90 -90l-191 -193q-108 -102 -244 -102h-5q-144 0 -250 103q-50 51 -76.5 116t-25.5 133z" />
<glyph unicode="j" d="M52 90v614q0 42 30 72t72 30h46v-102h164v102h297v-102h164v102h46q42 0 72 -30t30 -72v-614q0 -43 -30 -73t-72 -30h-717q-42 0 -72 30t-30 73zM154 90h717v409h-717v-409zM246 735v174h72v-174h-72zM707 735v174h72v-174h-72z" />
<glyph unicode="k" horiz-adv-x="860" d="M329 460q13 3 59 3h36v-466h14v466h36q2 -4 2 -7v-21q0 -23 -2 -29l-4 -7q-9 -7 -3 -13l3 -5q0 -6 -3 -12q-1 -3 -1 -13v-28q0 -2 -3 -6q-2 -5 -1 -6q4 -4 19 -2l5 2q6 2 3 15l-2 15q2 8 0 17v15q-1 1 -1 2q0 2 1 3v3q1 1 1 7q0 4 -4 7q-6 4 -6 14q0 6 1 11v10v28 q47 0 59 -3l-3 284q-3 5 -12 5h-182q-9 0 -12 -5v-284z" />
<glyph unicode="l" horiz-adv-x="860" d="M147 291q0 -8 21 -1l-13 -16q-3 -3 -3 -10v-20l14 -3h10q2 0 3 1h3l192 -2q1 0 2 -1l1 -1h13l1 1l2 2h2l2 8l4 41v17l-128 3q-17 -12 -41 -12v5q-3 0 -3 -5h-15l131 356l12 3h5q4 0 5 1l347 78l14 7l-3 18l-355 -79q-1 0 -7.5 -1.5t-11.5 -3.5q2 3 -4 5l-10 5 q-7 1 -11 -6l-2 -3q-6 0 -8 -1q-7 -7 -7 -10q-18 0 -37 -10q-1 -1 1 -6q6 -2 18 2l13 4q8 1 12 0l-130 -354l-14 -2q-7 -2 -17 -4q-8 -3 -8 -6zM312 667q3 8 11 8l-1 -4q-4 -4 -10 -4z" />
<glyph unicode="m" d="M19 441v5q-1 98 35 186q36 90 104 159t157 108t189 40h11q196 0 339 -139q69 -66 108 -156q40 -92 40 -192q0 -201 -139 -347q-140 -144 -346 -149h-5q-97 0 -185 36q-90 37 -159 104q-69 68 -108.5 157t-40.5 188zM240 170q114 -110 273 -110h3q161 2 273 118 q109 114 109 264v11q-2 161 -117 273q-114 110 -273 110h-3q-161 -2 -273 -117q-110 -115 -110 -273q0 -163 118 -276zM242 448q0 35 10 61q11 28 29 46t45 29q23 10 54 10q44 0 75 -16q33 -19 50 -52l-63 -33q-4 10 -11 19q-7 6 -14 11q-5 4 -13 6q-10 2 -14 2 q-31 0 -47 -20t-16 -63q0 -21 4 -34q5 -15 12 -27q8 -12 20 -16q12 -6 27 -6q22 0 36 10t22 30l58 -29q-6 -14 -21 -31q-13 -13 -30 -24q-14 -9 -35 -14q-15 -5 -37 -5q-36 0 -57 9q-27 11 -45 29t-29 47q-10 26 -10 61zM515 448q0 31 10 61q9 25 29 46q17 17 44 29 q23 10 55 10q44 0 75 -16q32 -19 49 -52l-62 -33q-7 14 -11 19q-13 10 -14 11q-7 4 -14 6q-10 2 -14 2q-33 0 -47 -20q-16 -22 -16 -63q0 -21 4 -34q5 -15 12 -27q8 -12 20 -16q11 -6 27 -6q22 0 35 10q16 13 23 30l59 -29q-11 -18 -22 -31q-13 -13 -30 -24q-16 -9 -35 -14 q-15 -5 -37 -5q-36 0 -57 9q-27 11 -45 29t-29 47q-9 23 -9 61z" />
<glyph unicode="n" horiz-adv-x="860" d="M231 819q0 -1 9 -12l312 -264l-111 -520h28l103 501l23 -19l15 19l-30 28l2 15l-22 18l-4 -12l-299 255q-8 7 -12 7h-2l-11 -16h-1z" />
<glyph unicode="o" d="M0 460q0 13 20 44.5t64 73t102 79t144.5 63.5t181.5 26t181.5 -26t144.5 -63.5t102 -79t64 -73t20 -44.5t-20 -44.5t-64 -73t-102 -79.5t-144.5 -64t-181.5 -26t-181.5 26t-144.5 64t-102 79.5t-64 73t-20 44.5zM284 460q0 -91 67.5 -156t160.5 -65q94 0 161 64.5 t67 156.5t-67 156.5t-161 64.5q-93 0 -160.5 -65t-67.5 -156zM399 460q0 46 33 78t80 32q33 0 36.5 -10.5t-10.5 -26.5q-15 -17 -21 -35q-2 -5 -2 -10q0 -13 11 -24q14 -12 28 -7.5t27 13.5t23.5 17.5t16.5 2.5t6 -30q0 -45 -34 -78t-81 -33t-80 32.5t-33 78.5z" />
<glyph unicode="&#x2000;" horiz-adv-x="480" />
<glyph unicode="&#x2001;" horiz-adv-x="961" />
<glyph unicode="&#x2002;" horiz-adv-x="480" />
<glyph unicode="&#x2003;" horiz-adv-x="961" />
<glyph unicode="&#x2004;" horiz-adv-x="320" />
<glyph unicode="&#x2005;" horiz-adv-x="240" />
<glyph unicode="&#x2006;" horiz-adv-x="160" />
<glyph unicode="&#x2007;" horiz-adv-x="160" />
<glyph unicode="&#x2008;" horiz-adv-x="120" />
<glyph unicode="&#x2009;" horiz-adv-x="192" />
<glyph unicode="&#x200a;" horiz-adv-x="53" />
<glyph unicode="&#x202f;" horiz-adv-x="192" />
<glyph unicode="&#x205f;" horiz-adv-x="240" />
<glyph unicode="&#x25fc;" horiz-adv-x="500" d="M0 0z" />
<glyph horiz-adv-x="600" />
<glyph horiz-adv-x="600" />
<glyph horiz-adv-x="600" />
</font>
</defs>
</svg>
