<svg width="100" height="1200" xmlns="http://www.w3.org/2000/svg"><defs><linearGradient y2="1" x2="1" x1="1" id="a"><stop stop-color="#fff" offset="0"/><stop stop-color="#ddd" offset="1"/></linearGradient><linearGradient y2="1" x2="1" x1="1" id="b"><stop stop-color="#fff" offset="0"/><stop stop-color="#e7e7e7" offset="1"/></linearGradient><linearGradient y2="1" x2="1" x1="1" id="c"><stop stop-color="#fff" offset="0"/><stop stop-color="#aaa" offset="1"/></linearGradient><linearGradient y2="1" x2="1" x1="1" id="d"><stop stop-color="#999" offset="0"/><stop stop-color="#676767" offset="1"/></linearGradient><linearGradient y2="1" x2="1" x1="1" id="e"><stop stop-color="#f3e5ce" offset="0"/><stop stop-color="#c0af91" offset="1"/></linearGradient><linearGradient y2="1" x2="1" x1="1" id="f"><stop stop-color="#f3e5ce" offset="0"/><stop stop-color="#d9c9ae" offset="1"/></linearGradient><linearGradient y2="1" x2="1" x1="1" id="g"><stop stop-color="#d1b29f" offset="0"/><stop stop-color="#9f7f6c" offset="1"/></linearGradient><linearGradient y2="1" x2="1" x1="1" id="h"><stop stop-color="#d1b29f" offset="0"/><stop stop-color="#b89784" offset="1"/></linearGradient><linearGradient y2="1" x2="1" x1="1" id="i"><stop stop-color="#bb766d" offset="0"/><stop stop-color="#82443c" offset="1"/></linearGradient><linearGradient y2="1" x2="1" x1="1" id="j"><stop stop-color="#bb766d" offset="0"/><stop stop-color="#9e5b52" offset="1"/></linearGradient><linearGradient y2="1" x2="1" x1="1" id="k"><stop stop-color="#8ab5c5" offset="0"/><stop stop-color="#578190" offset="1"/></linearGradient><linearGradient y2="1" x2="1" x1="1" id="l"><stop stop-color="#8ab5c5" offset="0"/><stop stop-color="#709cac" offset="1"/></linearGradient><linearGradient y2="1" x2="1" x1="1"><stop stop-color="#f3e5ce" offset="0"/><stop stop-color="#c0af91" offset="1"/></linearGradient></defs><title>Ebene 1</title><title>Layer 1</title><title>Layer 1</title><path d="M0 0h100v100h-100v-100z" fill="url(#a)"/><path d="M0 100h100v100h-100v-100z" fill="url(#b)"/><path d="M0 200h100v100h-100v-100z" fill="url(#c)"/><path d="M0 300h100v100h-100v-100z" fill="url(#d)"/><path d="M0 400h100v100h-100v-100z" fill="url(#e)"/><path d="M0 500h100v100h-100v-100z" fill="url(#f)"/><path d="M0 600h100v100h-100v-100z" fill="url(#g)"/><path d="M0 700h100v100h-100v-100z" fill="url(#h)"/><path d="M0 800h100v100h-100v-100z" fill="url(#i)"/><path d="M0 900h100v100h-100v-100z" fill="url(#j)"/><path d="M0 1000h100v100h-100v-100z" fill="url(#k)"/><path d="M0 1100h100v100h-100v-100z" fill="url(#l)"/></svg>